<?xml version="1.0" encoding="utf-8"?>
<!-- Generator: Adobe Illustrator 20.1.0, SVG Export Plug-In . SVG Version: 6.00 Build 0)  -->
<svg version="1.1" id="Layer_1" xmlns="http://www.w3.org/2000/svg" xmlns:xlink="http://www.w3.org/1999/xlink" x="0px" y="0px"
	 viewBox="0 0 50 50" style="enable-background:new 0 0 50 50;" xml:space="preserve">
<style type="text/css">
	.st0{fill:#ffffff;}
</style>
<title>58 - Settings</title>
<desc>Created with Sketch.</desc>
<g>
	<path class="st0" d="M38.7,19.7H11.3c-0.9,0-1.6-0.7-1.6-1.6l0,0c0-0.9,0.7-1.6,1.6-1.6h27.3c0.9,0,1.6,0.7,1.6,1.6l0,0
		C40.3,19,39.5,19.7,38.7,19.7z"/>
	<path class="st0" d="M38.7,26.7H11.3c-0.9,0-1.6-0.7-1.6-1.6l0,0c0-0.9,0.7-1.6,1.6-1.6h27.3c0.9,0,1.6,0.7,1.6,1.6l0,0
		C40.3,26,39.5,26.7,38.7,26.7z"/>
	<path class="st0" d="M38.7,33.5H11.3c-0.9,0-1.6-0.7-1.6-1.6l0,0c0-0.9,0.7-1.6,1.6-1.6h27.3c0.9,0,1.6,0.7,1.6,1.6l0,0
		C40.3,32.7,39.5,33.5,38.7,33.5z"/>
</g>
</svg>
